<svg width="155" height="60" viewBox="0 0 155 60" fill="none" xmlns="http://www.w3.org/2000/svg">
<path d="M1.872 46H8.4V17.92H1.872V46ZM1.056 11.056C1.056 13.504 2.496 15.088 5.136 15.088C7.68 15.088 9.216 13.504 9.216 11.056C9.216 8.608 7.68 6.976 5.136 6.976C2.64 6.976 1.056 8.608 1.056 11.056ZM12.1376 46H18.6176V30.592C18.6176 25.648 21.4976 22.96 25.1936 22.96C29.4176 22.96 31.5296 25.648 31.5296 30.016V46H38.1056V29.344C38.1056 21.712 34.0256 17.344 26.9696 17.344C23.3216 17.344 20.4416 18.928 18.5696 21.376V17.92H12.1376V46ZM39.6296 23.728H44.4296V34.288C44.4296 43.216 47.0696 46 55.7576 46H56.6696V39.904C51.6776 39.904 50.9576 39.136 50.9576 34.24V23.728H56.6696V17.92H50.9576V9.184L44.4296 13.648V17.92H39.6296V23.728ZM72.792 46.576C79.128 46.576 83.448 43.552 85.896 38.992L80.568 35.92C79.224 38.944 76.44 40.864 72.792 40.864C68.184 40.864 65.064 38.224 64.152 34.24H87V31.792C87 23.488 80.904 17.344 72.552 17.344C64.344 17.344 57.96 23.824 57.96 32.032C57.96 40.144 63.96 46.576 72.792 46.576ZM72.552 23.056C76.584 23.056 79.464 25.024 80.424 28.816H64.488C65.64 25.36 68.664 23.056 72.552 23.056ZM89.9033 46H96.3833V31.024C96.3833 26.176 98.3513 24.16 102.143 24.16C104.015 24.16 105.071 24.64 106.031 25.264L108.479 19.12C107.183 18.4 105.599 17.92 103.535 17.92C100.031 17.92 97.6313 19.312 96.3353 22.096V17.92H89.9033V46ZM110.575 46H117.055V30.592C117.055 25.648 119.935 22.96 123.631 22.96C127.855 22.96 129.967 25.648 129.967 30.016V46H136.543V29.344C136.543 21.712 132.463 17.344 125.407 17.344C121.759 17.344 118.879 18.928 117.007 21.376V17.92H110.575V46Z" fill="black"/>
<path d="M136.728 16.264H142.92V22.408H148.344V16.264H154.488V10.744H148.344V4.648H142.92V10.744H136.728V16.264Z" fill="black"/>
</svg>
