<?xml version="1.0" standalone="no"?>
<!DOCTYPE svg PUBLIC "-//W3C//DTD SVG 20010904//EN"
 "http://www.w3.org/TR/2001/REC-SVG-20010904/DTD/svg10.dtd">
<svg version="1.0" xmlns="http://www.w3.org/2000/svg"
 width="700.000000pt" height="700.000000pt" viewBox="0 0 700.000000 700.000000"
 preserveAspectRatio="xMidYMid meet">
<metadata>
Created by potrace 1.11, written by Peter Selinger 2001-2013
</metadata>
<g transform="translate(0.000000,700.000000) scale(0.100000,-0.100000)"
fill="#000000" stroke="none">
<path d="M1670 6214 c-116 -19 -163 -37 -245 -92 -128 -87 -218 -226 -251
-387 -7 -33 -7 -148 0 -185 25 -133 77 -231 171 -325 258 -257 686 -213 889
93 90 136 117 290 82 467 -13 65 -85 191 -143 250 -70 73 -82 81 -158 122
-104 55 -230 76 -345 57z"/>
<path d="M4043 6222 c-22 -3 -23 -7 -24 -125 0 -67 -1 -270 -2 -452 l-2 -330
-450 0 -450 0 -3 -453 -2 -452 32 -1 c18 0 223 -1 455 -1 l421 0 1 -331 c0
-183 1 -387 1 -455 l0 -122 453 2 452 3 1 435 c1 239 2 442 3 451 1 15 43 16
445 17 245 0 448 2 453 5 6 4 10 827 4 892 -1 7 -158 10 -451 10 -300 -1 -451
3 -453 10 -1 5 -2 209 -2 453 1 394 -1 442 -14 443 -66 2 -851 3 -868 1z"/>
<path d="M1169 4656 c0 -6 -2 -881 -2 -1943 -2 -1927 -2 -1933 18 -1934 25 -1
1138 -1 1145 0 4 1 5 3784 1 3867 l-1 21 -580 0 c-407 0 -580 -4 -581 -11z"/>
</g>
</svg>
