<?xml version="1.0" standalone="no"?>
<!DOCTYPE svg PUBLIC "-//W3C//DTD SVG 20010904//EN"
 "http://www.w3.org/TR/2001/REC-SVG-20010904/DTD/svg10.dtd">
<svg version="1.0" xmlns="http://www.w3.org/2000/svg"
 width="700.000000pt" height="700.000000pt" viewBox="0 0 700.000000 700.000000"
 preserveAspectRatio="xMidYMid meet">
<metadata>
Created by potrace 1.11, written by Peter Selinger 2001-2013
</metadata>
<g transform="translate(0.000000,700.000000) scale(0.100000,-0.100000)"
fill="#000000" stroke="none">
<path d="M1015 6985 c-119 -25 -227 -74 -322 -147 -55 -42 -133 -124 -161
-167 -9 -14 -19 -28 -23 -31 -17 -14 -82 -170 -98 -238 -34 -138 -19 -354 30
-462 79 -171 148 -258 280 -351 280 -199 649 -189 927 23 76 59 166 168 211
257 89 173 109 403 50 581 -91 281 -297 467 -590 536 -50 12 -246 11 -304 -1z"/>
<path d="M4020 6688 c-1 -172 0 -464 0 -649 l1 -335 -643 -1 c-354 -1 -646 -2
-649 -2 -3 -1 -6 -292 -6 -648 l0 -648 648 1 649 2 0 -357 c-1 -196 0 -488 0
-648 l0 -293 645 0 c355 0 646 3 646 8 1 4 2 295 3 647 l1 640 625 2 c344 1
635 2 648 2 l22 1 0 645 c0 355 -3 645 -7 646 -5 0 -296 2 -648 2 l-640 2 0
648 0 647 -647 0 -648 0 0 -312z"/>
<path d="M390 2333 l0 -2333 778 2 777 3 0 2330 0 2330 -778 1 -777 1 0 -2334z"/>
</g>
</svg>
