<?xml version="1.0" standalone="no"?>
<!DOCTYPE svg PUBLIC "-//W3C//DTD SVG 20010904//EN"
 "http://www.w3.org/TR/2001/REC-SVG-20010904/DTD/svg10.dtd">
<svg version="1.0" xmlns="http://www.w3.org/2000/svg"
 width="96.000000pt" height="96.000000pt" viewBox="0 0 96.000000 96.000000"
 preserveAspectRatio="xMidYMid meet">
<metadata>
Created by potrace 1.11, written by Peter Selinger 2001-2013
</metadata>
<g transform="translate(0.000000,96.000000) scale(0.100000,-0.100000)"
fill="#000000" stroke="none">
<path d="M745 814 c-30 -32 -31 -58 -5 -102 19 -30 19 -34 4 -72 -24 -60 -55
-80 -125 -80 l-59 0 0 108 c0 71 -4 112 -12 120 -18 18 -348 17 -373 -2 -19
-14 -19 -15 3 -68 16 -38 22 -74 22 -126 l0 -72 -70 0 c-104 0 -105 -4 -30
-208 34 -92 69 -173 78 -180 23 -18 675 -18 690 1 20 24 52 219 52 317 0 110
0 110 -77 110 -39 0 -44 2 -38 18 4 9 14 37 23 62 8 25 23 57 33 72 23 32 24
50 4 87 -24 47 -83 54 -120 15z m-265 -254 l0 -160 -50 0 c-47 0 -50 2 -81 48
-18 26 -40 54 -50 62 -14 12 -18 34 -21 113 l-3 97 103 0 102 0 0 -160z m360
-120 l0 -40 -140 0 -140 0 0 40 0 40 140 0 140 0 0 -40z m-562 -35 c9 -16 27
-41 40 -55 12 -14 20 -31 17 -38 -3 -9 0 -10 13 -3 27 14 164 12 159 -3 -3 -7
1 -13 8 -13 8 0 11 7 7 16 -5 14 -4 14 13 1 12 -10 16 -10 11 -2 -6 10 3 12
38 11 29 -2 45 -7 42 -14 -2 -6 5 -11 15 -11 13 0 15 4 8 12 -8 9 8 12 66 12
66 0 76 -2 71 -17 -5 -14 -4 -14 7 -1 16 20 41 25 34 7 -3 -8 -8 -35 -12 -60
l-7 -46 -200 1 c-167 1 -198 3 -194 15 3 8 2 12 -3 8 -5 -3 -11 0 -13 7 -3 7
-7 5 -11 -6 -4 -10 -3 -15 3 -11 6 3 10 1 10 -4 0 -14 -175 -10 -176 4 0 6 -5
21 -11 35 -32 78 -51 139 -46 144 4 3 1 6 -5 6 -7 0 -12 5 -12 11 0 5 6 7 13
4 6 -4 4 0 -6 8 -16 13 -12 15 43 13 57 -1 62 -3 78 -31z"/>
<path d="M250 406 c0 -2 7 -7 16 -10 8 -3 12 -2 9 4 -6 10 -25 14 -25 6z"/>
<path d="M236 378 c3 -5 10 -6 15 -3 13 9 11 12 -6 12 -8 0 -12 -4 -9 -9z"/>
<path d="M196 355 c-9 -26 -7 -32 5 -12 6 10 9 21 6 23 -2 3 -7 -2 -11 -11z"/>
<path d="M252 361 c-11 -7 -11 -9 0 -14 9 -3 15 1 15 9 0 8 -1 14 -1 14 -1 0
-7 -4 -14 -9z"/>
<path d="M296 318 c3 -5 10 -6 15 -3 13 9 11 12 -6 12 -8 0 -12 -4 -9 -9z"/>
<path d="M356 302 c-3 -5 1 -9 9 -9 8 0 12 4 9 9 -3 4 -7 8 -9 8 -2 0 -6 -4
-9 -8z"/>
<path d="M433 298 c2 -7 1 -20 -4 -28 -5 -11 -2 -16 11 -16 12 0 16 4 11 11
-5 5 -7 18 -6 28 2 9 -1 17 -7 17 -5 0 -8 -6 -5 -12z"/>
<path d="M556 295 c-9 -26 -7 -32 5 -12 6 10 9 21 6 23 -2 3 -7 -2 -11 -11z"/>
<path d="M710 300 c0 -5 5 -10 10 -10 6 0 10 5 10 10 0 6 -4 10 -10 10 -5 0
-10 -4 -10 -10z"/>
<path d="M219 288 c7 -9 9 -23 5 -30 -6 -10 -4 -11 7 0 11 10 10 15 -6 30 -17
15 -18 15 -6 0z"/>
<path d="M292 291 c-11 -6 -10 -10 0 -19 11 -8 14 -7 14 9 0 10 0 19 -1 19 0
0 -6 -4 -13 -9z"/>
<path d="M250 280 c0 -5 5 -10 10 -10 6 0 10 5 10 10 0 6 -4 10 -10 10 -5 0
-10 -4 -10 -10z"/>
<path d="M795 270 c-3 -5 -1 -10 4 -10 6 0 11 5 11 10 0 6 -2 10 -4 10 -3 0
-8 -4 -11 -10z"/>
<path d="M316 253 c-6 -14 -5 -15 5 -6 7 7 10 15 7 18 -3 3 -9 -2 -12 -12z"/>
<path d="M387 259 c7 -7 15 -10 18 -7 3 3 -2 9 -12 12 -14 6 -15 5 -6 -5z"/>
<path d="M597 253 c3 -7 6 -13 8 -13 2 0 5 6 8 13 3 8 -1 14 -8 14 -7 0 -11
-6 -8 -14z"/>
<path d="M669 256 c5 -6 7 -19 6 -28 -2 -10 1 -18 7 -18 5 0 8 6 5 13 -2 6 3
18 12 25 14 11 14 11 -3 5 -12 -4 -17 -3 -13 4 3 5 0 10 -8 10 -9 0 -11 -4 -6
-11z"/>
<path d="M757 253 c3 -7 6 -13 8 -13 2 0 5 6 8 13 3 8 -1 14 -8 14 -7 0 -11
-6 -8 -14z"/>
<path d="M576 247 c3 -10 9 -15 12 -12 3 3 0 11 -7 18 -10 9 -11 8 -5 -6z"/>
<path d="M736 247 c3 -10 9 -15 12 -12 3 3 0 11 -7 18 -10 9 -11 8 -5 -6z"/>
<path d="M461 241 c-10 -7 -7 -9 12 -8 14 1 23 5 20 10 -6 9 -15 9 -32 -2z"/>
<path d="M267 227 c-3 -8 1 -14 8 -14 7 0 11 6 8 14 -6 16 -10 16 -16 0z"/>
<path d="M515 220 c3 -5 8 -10 11 -10 2 0 4 5 4 10 0 6 -5 10 -11 10 -5 0 -7
-4 -4 -10z"/>
</g>
</svg>
